# xmcd CD database file
#
# Track frame offsets:
#	150
#	5167
#	18772
#	31175
#	41975
#	64565
#	73350
#	91520
#	102302
#	119097
#
# Disc length: 1781 seconds
#
# Revision: 3
# Processed by: cddbd v1.5.2PL0 Copyright (c) Steve Scherf et al.
# Submitted via: CDex 1.51
#
DISCID=8206f30a
DTITLE=Twenty Miles - R.L. Boyce Othar Turner Fife and Drum Spam
DYEAR=1997
DGENRE=Indie
TTITLE0=Intro
TTITLE1=Junkyard
TTITLE2=Place Called Hell
TTITLE3=She Don't Know
TTITLE4=Piece Of Clay
TTITLE5=My Back Door
TTITLE6=I'm Not A Man
TTITLE7=Come Right In
TTITLE8=My Little Baby
TTITLE9=Mississippi Bolero
EXTD=YEAR: 1997
EXTT0=
EXTT1=
EXTT2=
EXTT3=
EXTT4=
EXTT5=
EXTT6=
EXTT7=
EXTT8=
EXTT9=
PLAYORDER=
